<?xml version="1.0" encoding="UTF-8" standalone="yes"?>
<svg xmlns="http://www.w3.org/2000/svg" xmlns:xlink="http://www.w3.org/1999/xlink" width="30px" height="30px" viewBox="0 0 30 30" version="1.1" fill="#000000">
  <g id="surface74582">
    <path style=" stroke:none;fill-rule:nonzero;fill:#000000;fill-opacity:1;" d="M 2 2 C 1.640625 1.996094 1.304688 2.183594 1.121094 2.496094 C 0.941406 2.808594 0.941406 3.191406 1.121094 3.503906 C 1.304688 3.816406 1.640625 4.003906 2 4 L 3.878906 4 C 4.105469 4 4.292969 4.140625 4.359375 4.359375 L 8.617188 18.847656 C 8.992188 20.121094 10.167969 21 11.496094 21 L 22.472656 21 C 23.820312 21 25.011719 20.089844 25.367188 18.789062 L 27.964844 9.265625 C 28.046875 8.964844 27.984375 8.640625 27.796875 8.394531 C 27.605469 8.144531 27.3125 8 27 8 L 7.515625 8 L 6.277344 3.796875 C 6.277344 3.792969 6.277344 3.792969 6.273438 3.796875 C 5.964844 2.734375 4.984375 2 3.878906 2 Z M 12 23 C 10.894531 23 10 23.894531 10 25 C 10 26.105469 10.894531 27 12 27 C 13.105469 27 14 26.105469 14 25 C 14 23.894531 13.105469 23 12 23 Z M 22 23 C 20.894531 23 20 23.894531 20 25 C 20 26.105469 20.894531 27 22 27 C 23.105469 27 24 26.105469 24 25 C 24 23.894531 23.105469 23 22 23 Z M 22 23 "/>
  </g>
</svg>
